<?xml version="1.0" encoding="UTF-8"?>
<svg width="96px" height="96px" viewBox="0 0 96 96" version="1.1" xmlns="http://www.w3.org/2000/svg" xmlns:xlink="http://www.w3.org/1999/xlink">
    <title>纯粹的日记</title>
    <g id="官网✅" stroke="none" stroke-width="1" fill="none" fill-rule="evenodd">
        <g id="官网" transform="translate(-449.000000, -2465.000000)" fill="#71BD1E">
            <g id="编组-7" transform="translate(406.000000, 2463.000000)">
                <g id="编组-3" transform="translate(43.000000, 0.000000)">
                    <g id="纯粹的日记-2" transform="translate(0.000000, 2.000000)">
                        <g id="纯粹的日记" transform="translate(10.000000, 9.000000)">
                            <path d="M29.6572819,16.3581821 C45.8880403,4.09979504 64.7039312,0 75.0318301,0 L80,0 L79.1874095,4.77216139 C77.7264307,13.3038348 74.1434539,21.3763312 69.1794943,26.7511624 L75.3854964,32.7983601 L72.4088048,35.6969152 C67.9963963,39.9935004 54.506552,52.0919954 34.1075833,54.2976852 C26.0911465,55.1668417 19.7251525,59.7299135 15.2453789,65.5024249 C10.6940301,71.3651318 8.49203618,77.9576022 8.42888148,82 L0.00825459641,81.9877006 C-0.383304555,49.4476277 13.2075873,28.780561 29.6572819,16.3581821 Z M11.4855691,57.1347433 C16.8116155,51.6041199 24.0744063,47.1312434 33.1813143,46.1472926 C47.3784913,44.6139693 57.811648,37.4352282 63.3776825,32.6999651 L56.7085459,26.2058898 L60.5904549,23.3688316 C64.1692214,20.7531624 67.64273,15.3906305 69.6763114,8.56447181 C60.4262527,9.71651417 46.8353608,13.7589121 34.8149159,22.8317584 C24.9122587,30.3179841 15.9821838,41.280836 11.4897794,57.1347433 L11.4855691,57.1347433 Z" id="形状"></path>
                        </g>
                    </g>
                </g>
            </g>
        </g>
    </g>
</svg>