<?xml version="1.0" encoding="UTF-8"?>
<svg width="96px" height="96px" viewBox="0 0 96 96" version="1.1" xmlns="http://www.w3.org/2000/svg" xmlns:xlink="http://www.w3.org/1999/xlink">
    <title>安全保密</title>
    <g id="官网✅" stroke="none" stroke-width="1" fill="none" fill-rule="evenodd">
        <g id="官网" transform="translate(-915.000000, -2804.000000)" fill="#309F37">
            <g id="编组-7" transform="translate(411.000000, 2802.000000)">
                <g id="编组-3" transform="translate(38.000000, 0.000000)">
                    <g id="安全保密" transform="translate(466.000000, 2.000000)">
                        <g transform="translate(13.000000, 12.000000)">
                            <path d="M33.5001409,4.6875 C35.8406377,4.6875 38.1960897,4.921875 40.4917207,5.38330078 C42.8097846,5.85205078 45.0904604,6.55517578 47.2664494,7.47802734 L62.2217554,13.8208008 L62.2217554,32.2924805 C62.229178,36.6650391 61.4739379,40.9716797 59.9709351,45.0878906 C58.4903653,49.1674805 56.3816749,52.96875 53.6972073,56.3891602 L53.6897297,56.4038086 L53.6822521,56.418457 C50.9977845,59.8974609 47.774928,62.9003906 44.1108915,65.3540039 C40.8506467,67.5292969 37.2838194,69.140625 33.5001409,70.1513672 C29.7015071,69.140625 26.1197245,67.5146484 22.8520022,65.3320313 C19.1879657,62.878418 15.9725867,59.8754883 13.2881192,56.3964844 L13.2806416,56.3891602 L13.2731639,56.3818359 C10.6111293,52.96875 8.51739412,49.1748047 7.0443019,45.1098633 L7.0443019,45.0952148 C5.54129918,40.9790039 4.786059,36.6723633 4.80079644,32.2998047 L4.80079644,13.828125 L19.7487876,7.48535156 C21.9247766,6.5625 24.2054524,5.859375 26.5235163,5.390625 C28.8041921,4.921875 31.1521665,4.6875 33.5001409,4.6875 M33.5001409,0 C28.1685939,0 22.8295693,1.06201172 17.8345155,3.18603516 L0.00018692074,10.7446289 L0.00018692074,32.2924805 C-0.0145765636,37.199707 0.845350368,42.0629883 2.5278161,46.6772461 C4.15793846,51.1962891 6.49843524,55.4296875 9.45957493,59.230957 C12.4506251,63.1054687 16.0623182,66.4746094 20.1451018,69.2138672 C24.2054524,71.9311523 28.7219382,73.894043 33.4926633,75 C38.2484331,73.894043 42.7574412,71.9384766 46.8028366,69.2358398 C50.8930978,66.5039062 54.4973133,63.1274414 57.4883635,59.2529297 C60.471936,55.4443359 62.8273881,51.1962891 64.4724657,46.6625977 C66.1549314,42.0483398 67.0073807,37.1777344 66.9999519,32.277832 L66.9999519,10.7446289 L49.1582887,3.17871094 C44.1632348,1.06201172 38.8316879,0 33.5001409,0 Z" id="形状"></path>
                            <path d="M34.5694413,14.4580078 L39.6392714,24.5288086 C39.7290029,24.7045898 39.8935107,24.8217773 40.0879289,24.8510742 L51.4314868,26.4624023 C52.4110558,26.6015625 52.8073699,27.7807617 52.0969955,28.4619141 L43.8940403,36.2988281 C43.7519654,36.4306641 43.6921444,36.628418 43.7220549,36.8188477 L45.6587599,47.8857422 C45.8232677,48.8452148 44.798833,49.5703125 43.9239508,49.1235352 L33.776813,43.9013672 C33.6048276,43.8134766 33.3954541,43.8134766 33.2234687,43.9013672 L23.076331,49.1235352 C22.2014488,49.5776367 21.1695365,48.8452148 21.3415218,47.8857422 L23.2782268,36.8188477 C23.3081373,36.628418 23.2483163,36.4379883 23.1062415,36.2988281 L14.8958087,28.4619141 C14.1854342,27.7807617 14.5742708,26.6015625 15.5613173,26.4624023 L26.9048752,24.8510742 C27.0992935,24.8217773 27.2712789,24.7045898 27.3535327,24.5288086 L32.4233628,14.4580078 C32.8645427,13.5864258 34.1357391,13.5864258 34.5694413,14.4580078 L34.5694413,14.4580078 Z" id="路径"></path>
                        </g>
                    </g>
                </g>
            </g>
        </g>
    </g>
</svg>