<?xml version="1.0" encoding="UTF-8"?>
<svg width="234px" height="229px" viewBox="0 0 234 229" version="1.1" xmlns="http://www.w3.org/2000/svg" xmlns:xlink="http://www.w3.org/1999/xlink">
    <title>logo-普通模式</title>
    <defs>
        <path d="M202.741685,30.4073338 C203.957102,31.3997202 205.148706,32.426105 206.316495,33.4883259 C217.435685,43.602397 224.7749,58.1555592 229.00642,72.3797638 C234.645699,91.3398567 235.053281,111.545027 232.485059,131.053689 C232.485059,131.053689 227.905492,179.753212 191.268037,211.456281 C159.934637,238.567725 93.0079232,230.41086 58.6144563,212.851135 C13.8345306,189.988575 -4.79423363,133.762536 1.04105113,86.5644567 C1.34788214,84.0807342 1.71333162,81.6043626 2.13281999,79.1371799 C6.39456539,54.0683976 18.1127624,31.4860946 39.4782761,16.7261851 C64.9232683,-0.851917806 93.9458186,-2.14385783 123.49044,1.91389975 C151.055772,5.70058883 180.676413,12.3918458 202.741685,30.4073338" id="path-1"></path>
    </defs>
    <g id="时光日记✅" stroke="none" stroke-width="1" fill="none" fill-rule="evenodd">
        <g id="启动页" transform="translate(-256.000000, -220.000000)">
            <g id="编组-2" transform="translate(256.000000, 220.000000)">
                <g id="编组" transform="translate(0.000000, 0.000000)">
                    <mask id="mask-2" fill="white">
                        <use xlink:href="#path-1"></use>
                    </mask>
                    <use id="蒙版" fill="#484848" xlink:href="#path-1"></use>
                    <g mask="url(#mask-2)" fill="#FFFFFF" fill-rule="nonzero" id="形状结合">
                        <g transform="translate(-4.000000, 51.000000)">
                            <path d="M77.9514385,8.89673051 C79.6979657,8.18187398 82.8176773,9.27970078 83.6713205,10.9847924 L83.7445996,11.1463871 L83.8219085,11.3539562 C84.4227023,13.1190109 83.9410336,15.737606 82.6563198,17.0152269 L82.0815364,17.5805768 L81.5377061,18.1017692 C81.3611806,18.2682955 81.1892024,18.4276949 81.02116,18.5801998 L80.5282288,19.0172643 C78.840015,20.4762272 77.5183054,21.2007309 75.8551867,21.4600418 C70.3766956,22.3160219 66.4817237,25.0099153 61.639444,30.6979126 L60.9879709,31.4741566 C60.6592053,31.8712515 60.3257295,32.281882 59.9867937,32.7063905 C54.85543,39.131344 51.548265,46.3004771 50.0435528,54.1947267 L49.9117256,54.9143828 L49.815,55.481 L49.9164318,55.2796762 C56.4546276,42.381944 67.4519383,33.4282774 82.4888236,28.2141166 L83.1648152,27.9831452 L83.7742197,27.7807199 C93.6781253,24.5345853 100.158296,20.5873453 104.978624,14.1546551 C106.281602,12.4147708 108.479361,11.0547133 110.954149,10.2031425 C115.134697,8.77105163 118.085515,11.637085 117.075191,15.9347021 C116.06263,20.242322 113.113191,23.0585878 108.505687,24.8311996 L94.0942172,30.3247071 L90.6325356,31.6658115 L87.9359166,32.7299771 L85.1488452,33.8558952 L83.6215746,34.4858654 L82.3799308,35.0046742 L81.7498786,35.2700389 C66.9132931,41.5325558 57.1799116,51.3935561 52.7358121,65.5406501 C52.4540123,66.4374056 52.225241,67.373323 52.0148113,68.4744169 L51.8768614,69.234333 L51.7420621,70.0514875 L51.5714813,71.1890279 L51.5059411,71.6777158 L51.4512526,72.1388703 L51.4080279,72.5730716 C51.3955984,72.7133777 51.3851814,72.8492883 51.3768791,72.9809001 L51.3584183,73.3629358 C51.3524618,73.5476022 51.3514929,73.722814 51.3558558,73.8888974 L51.3717926,74.20899 C51.5035422,75.9549744 52.3496132,76.556428 54.4111922,76.4884606 L54.78772,76.469614 C54.8526116,76.465347 54.9185802,76.4605251 54.9856385,76.4551603 L55.4011671,76.4165547 L55.8434613,76.3655016 L56.3131333,76.3025813 L56.8107951,76.228374 C56.8961052,76.2150977 56.9826071,76.2013754 57.0703134,76.187219 C64.9345604,74.916988 71.4945181,70.6129973 77.3591978,63.4064249 L77.8201614,62.8356478 L78.5034841,61.9724948 L79.1858658,61.0894481 L79.6451564,60.4833043 L80.3479851,59.5383289 L80.83008,58.8789109 L81.5808748,57.8360414 L82.3736584,56.7171722 L83.5131423,55.0847461 L84.7683683,53.2635008 L86.3670478,50.9295009 C91.9510546,42.7827588 98.5056213,37.9013595 107.055226,36.3651859 L107.541303,36.2818059 C107.786962,36.2417102 108.026734,36.1791879 108.303327,36.0779111 L108.593776,35.9631116 L108.918263,35.8188473 C108.975708,35.7921463 109.034966,35.7640665 109.096236,35.7345321 L109.489575,35.5392678 L109.940677,35.3054678 L110.744541,34.8798401 L111.222025,34.6355402 C111.296952,34.5982163 111.370236,34.5622689 111.442901,34.5272181 C115.399407,32.6186636 119.50971,32.5958809 123.43422,34.4570849 C125.014251,35.2070496 126.485698,37.1935018 126.461228,38.8882661 C126.438554,40.6483851 124.777036,42.9181901 123.039626,43.3253571 L122.86569,43.3597772 L120.28033,43.7932202 L119.693706,43.8830505 L119.501776,43.9107411 C116.975182,44.2699002 115.050279,44.2850698 113.228115,43.8020073 C106.82412,42.1026731 101.510295,43.7218444 96.8220574,48.5679386 C96.6195463,48.7773122 96.4186975,48.9887817 96.2190171,49.2029001 L95.6229868,49.8537553 C94.831636,50.7336328 94.0510755,51.6647427 93.2496924,52.6824817 L92.6442569,53.462582 C92.5425356,53.5954902 92.4403655,53.7298903 92.3376848,53.8658513 L91.7149796,54.7009026 L91.0770567,55.5767358 C90.8615501,55.8758459 90.6430133,56.1823062 90.4209523,56.4966695 L89.7437027,57.4640222 L89.0423442,58.4821122 L88.681698,59.0112207 C88.0091844,60.0009008 87.3448246,60.9541986 86.6862182,61.8723268 L85.8984985,62.9572769 C79.747253,71.3250315 74.0195341,76.6280767 66.7216048,79.8738176 L66.2536278,80.0782083 L66.019,80.177 L66.3860955,80.1204028 C75.8165544,78.6081001 84.5945535,74.6663416 92.8955395,68.4004613 L93.5172218,67.9261642 L94.0949211,67.4763698 C101.238357,61.8614715 107.268938,58.2426187 113.932749,56.0080185 C122.906683,52.9989691 131.52998,53.3081477 139.810075,57.1190272 L140.306469,57.3518835 C140.606461,57.4954434 140.911311,57.6297863 141.232393,57.7594768 L141.727611,57.9510938 L142.255709,58.1391558 L142.825218,58.3270862 C142.924061,58.3585871 143.024985,58.3902252 143.128168,58.4220719 L143.775789,58.6162239 L146.105646,59.2605161 C150.824184,60.540967 154.031957,63.4348027 155.393326,67.9123496 C156.731987,72.3128276 153.593809,75.4964371 149.25199,73.9045754 C146.446803,72.8725949 144.240751,71.5096488 143.033193,69.6361367 C136.774878,59.9233359 125.182364,57.8033525 113.723913,62.990624 C109.12847,65.0712181 104.491752,67.8936907 99.7350095,71.4130325 L98.9410942,72.0060342 C86.5794386,81.3227742 74.1742705,86.4486563 60.5327172,87.198886 L59.811463,87.2346921 C59.7079314,87.2556707 59.5562273,87.3242429 59.3360223,87.4585959 L59.136,87.586 L59.1870298,87.6053143 C64.1521028,89.4242079 68.8898745,89.5034031 73.8470762,88.023946 L74.3275054,87.8759131 L74.7680303,87.7320837 L75.7758141,87.3855594 L76.7732039,87.0244246 L77.8007996,86.6331237 L78.8992012,86.1961011 L80.1090089,85.6978011 L81.8397847,84.9650569 L86.4347447,82.9827504 L88.0786851,82.287952 L89.4840519,81.7136749 L90.3586961,81.3695356 L91.1572031,81.0649557 L91.5072595,80.9340755 C99.9366114,77.8023796 107.501365,77.2325323 114.876788,79.7488643 L115.357533,79.9173538 C115.698866,80.03976 116.079345,80.1211993 116.633356,80.1903965 L117.083501,80.2404478 L118.195963,80.341575 L118.686508,80.3926523 C118.839712,80.4102823 118.984732,80.4288424 119.127941,80.4493097 C123.539594,81.0801275 126.965428,83.1951034 128.969527,86.8317421 C129.986459,88.6814949 130.215667,91.5743004 129.022449,93.0792636 C127.828894,94.583522 124.977737,94.9886576 122.933171,94.4174846 C120.981528,93.8712417 119.049955,92.8022629 117.632691,91.4480113 L117.373102,91.190804 C111.135946,84.7860293 103.803309,83.4000825 94.7845443,86.4692438 L93.2942708,86.9950216 L91.9750753,87.4724885 L91.179402,87.7693009 C91.0518301,87.8175873 90.926669,87.8653325 90.8037553,87.912612 L90.0919294,88.1913012 C89.9773496,88.2370185 89.8646895,88.2824205 89.7537855,88.3275824 L89.1081238,88.5962753 C88.8990541,88.6852807 88.6956986,88.7739279 88.4967475,88.8628188 L87.9117973,89.130825 L87.345414,89.4039058 L86.7897383,89.6856731 C79.1040476,93.674947 72.1008328,95.6938659 65.0323607,95.520773 L64.4431543,95.5012697 L63.99,95.478 L64.1213004,95.6001618 C69.1467631,100.23158 73.6425952,102.497045 78.9713602,102.720029 L79.3938074,102.733396 L79.7800751,102.738209 C85.4664294,102.759685 91.0548376,101.974184 95.94263,100.397225 L96.6047478,100.177281 C106.263907,96.8741166 116.384897,96.2822158 128.197554,97.8309969 C130.259017,98.1014141 131.910004,99.0541988 134.396717,101.076712 L136.446974,102.783115 C136.492469,102.820318 136.537117,102.856672 136.581413,102.892577 C138.044659,104.08268 138.518728,107.143399 137.610059,108.794918 C136.761639,110.338946 134.381095,111.230575 132.510716,111.096099 C130.625462,110.960379 128.64485,110.322689 127.069754,109.327496 C118.504749,103.905703 109.411416,102.960147 99.0692287,106.13298 L98.5331705,106.300763 C95.7386652,107.192251 92.8603943,107.840698 89.4732953,108.367191 L88.3248337,108.538338 L87.1351827,108.701448 C86.9332807,108.728018 86.7295167,108.754296 86.5238179,108.7803 L85.2658231,108.933224 L83.9578927,109.080601 L82.5965284,109.22343 C81.1452863,109.370406 79.7254152,109.382224 78.29571,109.25899 L77.6822569,109.197908 L77.512,109.177 L77.9104777,109.377116 C85.2571043,113.011537 92.942828,114.549423 101.058324,113.890108 L101.717281,113.831833 L102.315112,113.7708 C103.183363,113.676666 104.029709,113.492561 105.06886,113.170135 L105.656082,112.980258 L106.289289,112.761201 L106.976224,112.511221 L109.611188,111.505962 L110.364945,111.227232 L110.811734,111.068245 L111.228665,110.925844 L111.628352,110.795848 L112.223139,110.614963 L112.958978,110.40591 L113.974364,110.128748 C116.599216,109.431239 118.590534,109.063545 120.649608,108.956462 C122.617917,108.853298 125.270539,110.692717 125.755001,112.579147 C126.236405,114.448655 124.822396,117.251309 123.08961,118.178868 C120.121427,119.767255 117.735942,120.636612 115.331848,120.72034 L114.176535,120.75648 C113.983521,120.761742 113.79022,120.766623 113.596549,120.771126 L112.429402,120.793626 L111.249334,120.807152 L110.052319,120.811798 L108.834331,120.807659 C108.629362,120.806242 108.423351,120.804463 108.216214,120.802324 L106.959217,120.785186 L105.671183,120.759499 L104.348084,120.72536 L102.288884,120.65851 L100.128143,120.573175 L98.6245287,120.506174 L97.0657201,120.431194 C77.4409822,119.453977 62.132245,110.391997 51.1840263,93.6371106 L50.2244111,92.1448379 L50.0593787,91.8967057 L49.9093971,91.6832919 C49.8855084,91.6506038 49.8621373,91.619353 49.839229,91.5895349 L49.7068957,91.4277819 C49.3239303,90.9938779 49.055448,91.021169 48.5821189,91.4826406 L48.4163176,91.6525082 L48.2327142,91.854315 L48.0286805,92.0878386 L47.4119659,92.8089497 C30.686392,112.294713 20.6129915,135.491642 16.5724374,162.577534 C13.298892,184.517539 13.9428062,206.895261 18.2976677,229.960622 C19.6674001,237.218319 16.6135578,242.725633 10.3608917,243.77818 C3.77698909,244.888681 -1.56782457,240.379269 -1.73107182,233.36777 L-1.8363335,228.46803 L-1.90013437,224.711733 L-1.93342103,221.84964 L-1.94659443,219.71118 L-1.94659443,217.68841 L-1.93814905,216.236858 L-1.91500143,214.37496 L-1.88846048,213.024214 L-1.84044371,211.270259 L-1.77754995,209.554223 L-1.72032521,208.281683 L-1.65425535,207.013459 L-1.5520499,205.316606 L-1.46454669,204.030099 C1.4417165,163.206304 13.9460758,126.75448 36.5791358,94.7522663 L37.607116,93.3005582 L37.9143839,92.8639044 C37.9618159,92.7974493 38.0075747,92.733901 38.0519851,92.6728794 L38.3048644,92.33403 L38.5409693,92.0375767 C38.657426,91.8969082 38.7734377,91.7652963 38.8977724,91.6324777 L39.0252062,91.4988769 C43.5473598,86.8397623 44.8040443,81.4743479 43.6524548,73.6863297 L43.581943,73.2254038 C40.364507,52.8682881 46.6292662,35.3402451 62.0067245,21.1869658 L62.6125389,20.6340888 L62.8804073,20.3827955 L63.1462175,20.1234666 L63.4174439,19.8484539 L63.701561,19.5501092 L64.1682573,19.042114 L64.7060019,18.4386006 L65.9179823,17.0518983 L66.5925428,16.2929518 L66.9985191,15.8477646 C67.0637432,15.7771696 67.1278433,15.7082861 67.1909624,15.6409796 L67.5590496,15.2549856 L67.9104582,14.9003716 C68.0255774,14.7866785 68.139061,14.6771378 68.252053,14.570672 L68.5906989,14.2594211 C68.6472755,14.2087242 68.7040152,14.1585265 68.7610612,14.1086935 L69.1081549,13.8129926 L69.4694615,13.5195765 C71.6976894,11.7474896 74.2726142,10.4025656 77.9514385,8.89673051 Z M165.152039,78.9543381 C168.949718,78.8540179 172.119261,81.9629619 172.122907,85.7780108 C172.128318,89.6363064 169.022448,92.682885 165.16265,92.606993 C161.557542,92.5362693 158.525834,89.5875267 158.39795,86.0049484 C158.266254,82.2498448 161.348849,79.0553684 165.152039,78.9543381 Z M201.547527,56.7891451 C203.186349,56.5597067 206.516754,58.4409861 207.706874,59.5922665 C209.007245,60.8501998 208.572313,62.3661038 207.378527,63.2722527 L207.247762,63.3669673 L207.121,63.449 L205.685201,64.6381292 L204.982109,65.2079247 L204.550177,65.5461788 C204.415408,65.6494299 204.291569,65.7416001 204.183824,65.8179466 L204.034921,65.9200058 L203.93207,65.9843576 C203.410449,66.2903432 202.875852,66.4914935 202.289092,66.5866943 C199.026112,67.1179712 196.210084,64.5404375 196.922014,61.2010384 C197.343632,59.2258395 199.569721,57.0683785 201.547527,56.7891451 Z M176.521908,46.6214346 C177.348676,46.5415607 178.112933,46.7085827 178.867456,47.0770043 C179.146737,47.2133729 179.412869,47.3695725 179.715393,47.5688448 L180.107588,47.836686 L180.874897,48.3751096 C182.193467,49.2798944 182.648012,50.433059 182.355681,51.6990186 L182.308851,51.8806227 L182.282,51.967 C182.223979,52.7748666 181.821466,53.4351363 181.205784,53.9163262 L181.017,54.052 L180.973665,54.0987942 C179.959635,55.1458283 178.869223,55.9017536 177.612314,56.2614787 L177.319261,56.3374113 L177.020052,56.3989905 C173.594831,57.0117709 170.998768,54.2108235 171.764305,50.9116802 C172.222054,48.9415144 174.535474,46.8129911 176.521908,46.6214346 Z M218.542247,42.8707447 C217.748391,39.5628255 220.38118,36.8099068 223.780231,37.3961715 C224.832816,37.5780337 225.514127,37.9516829 226.677041,38.851959 L227.692981,39.6539541 L227.878915,39.793585 L228.042974,39.9099001 L228.402246,40.1452113 L228.875604,40.4367891 L229.057224,40.5669622 L229.166531,40.6572326 L229.259302,40.7425694 L229.329936,40.8157844 L229.396214,40.9009037 L229.526353,41.1034601 L229.659521,41.323454 L229.752789,41.6381331 C229.867096,42.0441266 229.865897,42.193836 229.744773,42.6384644 L229.646208,42.9846239 L229.376164,43.3897647 L229.340135,43.4392152 L229.304,43.484 L229.298819,43.5003841 C229.239045,43.6460499 229.162899,43.777773 229.073946,43.9007867 L228.980857,44.0210912 L228.880022,44.1367526 C228.746325,44.2823339 228.593376,44.4162374 228.387294,44.5714907 L228.112323,44.7701562 L227.858781,44.9457107 L227.547704,45.175729 L226.563504,45.9411126 L226.26831,46.1592149 L226.022523,46.3254831 L225.864089,46.4227533 L225.601537,46.5711279 C224.881765,46.9644785 224.15252,47.1673713 223.362627,47.1078377 C221.371321,46.9556118 219.018228,44.8419927 218.542247,42.8707447 Z M148.592262,21.707862 C152.610556,21.5538671 155.560589,24.2725225 155.666009,28.256828 C155.769762,32.1849102 152.896835,35.2158155 149.001106,35.253689 C145.144199,35.2914826 142.083574,32.289245 142.087189,28.4516391 C142.0908,24.7206968 144.859517,21.8518409 148.592262,21.707862 Z M168.379267,1.67384603 C169.973231,1.43526707 171.260827,2.20044454 173.037301,3.79578261 L173.512342,4.23067524 C174.839288,5.46588487 174.966775,7.21008895 173.70556,8.47496962 L173.559701,8.61348918 L173.451343,8.71102024 L173.251416,8.84393988 L173.087848,8.96076251 L172.788581,9.19209675 L172.524992,9.40491233 L172.122119,9.73389691 L171.686327,10.0810402 C171.547919,10.1889745 171.415952,10.2892332 171.289182,10.3821307 L170.923221,10.6390535 C170.041077,11.2277216 169.381309,11.419989 168.419139,11.348396 C166.3454,11.1914892 163.852568,8.52393344 163.860214,6.44902368 C163.868034,4.41250204 166.325869,1.9810017 168.379267,1.67384603 Z M239.565579,7.18985286 C238.70995,3.91529827 241.307091,1.13645453 244.665473,1.58314447 C245.809427,1.73559437 246.515159,2.1404139 247.841374,3.18138433 L248.513662,3.71237677 L248.800327,3.92829437 L249.037953,4.09206615 L249.897178,4.6539088 L249.943716,7.05168026 L249.960922,8.05773059 L249.06999,8.71246877 L248.895643,8.8527732 L248.573745,9.13277436 L248.09466,9.56856731 C246.605477,10.9242089 245.798931,11.4480056 244.439335,11.3482528 C242.445578,11.2044695 240.074691,9.14665159 239.565579,7.18985286 Z M200.272489,3.29824218 C199.791979,0.0663577607 202.48038,-2.48137874 205.709397,-1.84629136 L205.907745,-1.80341035 L206.116793,-1.74769676 C207.499397,-1.34213778 209.950696,0.0364217606 210.881843,0.768136938 C212.313511,1.89317233 212.166065,3.41229746 211.197226,4.62032739 C210.120604,5.96274972 206.551246,8.3467107 204.69699,7.99350015 C202.71927,7.61677137 200.574381,5.31273846 200.272489,3.29824218 Z M244.152854,5.43720287 C243.478309,5.34748332 243.184776,5.66155206 243.327797,6.20890631 C243.406089,6.50982587 244.05866,7.1228199 244.470451,7.36707983 L244.567911,7.42006887 L244.585,7.427 L244.603727,7.41662711 C244.706742,7.34972599 244.820931,7.26395621 244.963812,7.14527147 L245.201843,6.94080239 L245.726,6.466 L245.358335,6.1759216 L245.087486,5.96976218 L244.857265,5.80281676 L244.663008,5.67168072 L244.500052,5.57294942 C244.376003,5.50322959 244.279703,5.46371821 244.199007,5.44554909 L244.152854,5.43720287 Z"></path>
                        </g>
                    </g>
                </g>
            </g>
        </g>
    </g>
</svg>