<?xml version="1.0" encoding="UTF-8"?>
<svg width="96px" height="96px" viewBox="0 0 96 96" version="1.1" xmlns="http://www.w3.org/2000/svg" xmlns:xlink="http://www.w3.org/1999/xlink">
    <title>多端同步</title>
    <g id="官网✅" stroke="none" stroke-width="1" fill="none" fill-rule="evenodd">
        <g id="官网" transform="translate(-449.000000, -2802.000000)" fill="#4A68E3" stroke="#4A68E3" stroke-width="0.612">
            <g id="编组-7" transform="translate(411.000000, 2802.000000)">
                <g id="编组-3" transform="translate(38.000000, 0.000000)">
                    <g id="形状结合" transform="translate(21.000000, 13.000000)">
                        <path d="M42.7741935,0.306 C44.9616846,0.306 46.9422736,1.17997374 48.3758668,2.59357783 C49.7397022,3.93839679 50.608371,5.7717214 50.6880088,7.80470261 L50.694,8.11111111 L50.694,64.8888889 C50.694,67.0437249 49.8078939,68.9943623 48.3758668,70.4064222 C47.0105399,71.7527118 45.1490718,72.6095408 43.085248,72.6880907 L42.7741935,72.694 L8.22580645,72.694 C6.03831542,72.694 4.05772642,71.8200263 2.62413322,70.4064222 C1.26029783,69.0616032 0.391628969,67.2282786 0.311991199,65.1952974 L0.306,64.8888889 L0.306,8.11111111 C0.306,5.95627512 1.19210606,4.00563774 2.62413322,2.59357783 C3.98946008,1.24728822 5.85092825,0.390459245 7.91475195,0.311909297 L8.22580645,0.306 L42.7741935,0.306 Z M47.0279962,17.538 L3.97099727,17.538 L3.97141935,64.8888916 L3.97822645,65.1283802 C4.03701841,66.158811 4.47400273,67.0903127 5.18633844,67.792716 C5.93175298,68.527737 6.9807509,69.0128555 8.2163483,69.0882222 L8.2163483,69.0882222 L42.7741935,69.0882222 L43.0166009,69.0815135 C44.0595668,69.0235728 45.0021076,68.5929542 45.7129632,67.8920104 C46.4597618,67.1556246 46.9521017,66.1191765 47.0285808,64.8986081 L47.0285808,64.8986081 L47.0279962,17.538 Z M27.1795699,58.706 C27.7670168,58.706 28.2988501,58.9441099 28.6838217,59.3290815 C29.0687933,59.7140531 29.3069032,60.2458865 29.3069032,60.8333333 C29.3069032,61.4207802 29.0687933,61.9526135 28.6838217,62.3375852 C28.3416247,62.6797821 27.8833888,62.9059402 27.3732006,62.951973 L27.1795699,62.9606667 L23.8204301,62.9606667 C23.2329832,62.9606667 22.7011499,62.7225568 22.3161783,62.3375852 C21.9312067,61.9526135 21.6930968,61.4207802 21.6930968,60.8333333 C21.6930968,60.2458865 21.9312067,59.7140531 22.3161783,59.3290815 C22.6583753,58.9868845 23.1166112,58.7607264 23.6267994,58.7146937 L23.8204301,58.706 L27.1795699,58.706 Z M42.7836517,3.91177778 L8.22580645,3.91177778 L7.98339907,3.91848654 C6.94043317,3.97642723 5.99789237,4.40704581 5.28703682,5.10798965 C4.54024132,5.84437232 4.04790241,6.88081481 3.97142019,8.1013766 L3.97142019,8.1013766 L3.97097363,13.283 L47.0279635,13.283 L47.0285806,8.11114763 L47.0217736,7.8716512 C46.9629816,6.84118904 46.5259973,5.90968731 45.8136616,5.20728396 C45.068247,4.472263 44.0192491,3.98714446 42.7836517,3.91177778 L42.7836517,3.91177778 Z"></path>
                    </g>
                </g>
            </g>
        </g>
    </g>
</svg>