<?xml version="1.0" encoding="UTF-8"?>
<svg width="96px" height="96px" viewBox="0 0 96 96" version="1.1" xmlns="http://www.w3.org/2000/svg" xmlns:xlink="http://www.w3.org/1999/xlink">
    <title>分享日记</title>
    <g id="官网✅" stroke="none" stroke-width="1" fill="none" fill-rule="evenodd">
        <g id="官网" transform="translate(-1387.000000, -2469.000000)" fill="#FFA73E">
            <g id="编组-7" transform="translate(406.000000, 2463.000000)">
                <g id="编组-3" transform="translate(43.000000, 0.000000)">
                    <g id="分享日记-2" transform="translate(938.000000, 6.000000)">
                        <g id="分享日记" transform="translate(19.000000, 8.000000)">
                            <path d="M33.4650596,44.8043809 L33.4650596,71 L8.66343889e-07,71 C-0.00210320232,62.6332976 3.82847081,54.7365883 10.3748946,49.6122097 C16.9213185,44.4878312 25.4465714,42.712705 33.4650596,44.8043809 L33.4650596,44.8043809 Z M51.5529235,45.3047619 L61.0201884,54.8694762 C62.3266039,56.1897376 62.3266039,58.3298814 61.0201884,59.6501429 L51.5529235,69.2114762 C50.5639985,70.1424517 49.0229324,70.1149817 48.0671298,69.1493407 C47.1113271,68.1836997 47.084137,66.626771 48.0056274,65.6276666 L53.7917359,59.775238 L40.9946977,59.775238 C39.6085296,59.775238 38.4848183,58.6399601 38.4848183,57.2395238 C38.4848183,55.8390874 39.6085296,54.7038095 40.9946977,54.7038095 L53.7582708,54.7038095 L48.0022808,48.8919523 C47.0515601,47.8965402 47.0658964,46.3149981 48.0345025,45.3373442 C49.0031086,44.3596903 50.56855,44.3466979 51.5529235,45.3081429 L51.5529235,45.3047619 Z M26.7720481,0 C37.8657148,0 46.8510829,9.07785714 46.8510829,20.2857143 C46.8510829,31.4935714 37.8657148,40.5714286 26.7720481,40.5714286 C15.6783814,40.5714286 6.6930133,31.4935714 6.6930133,20.2857143 C6.6930133,9.07785714 15.6783814,0 26.7720481,0 Z" id="形状"></path>
                        </g>
                    </g>
                </g>
            </g>
        </g>
    </g>
</svg>