<?xml version="1.0" encoding="UTF-8"?>
<svg width="96px" height="96px" viewBox="0 0 96 96" version="1.1" xmlns="http://www.w3.org/2000/svg" xmlns:xlink="http://www.w3.org/1999/xlink">
    <title>夜间关怀</title>
    <g id="官网✅" stroke="none" stroke-width="1" fill="none" fill-rule="evenodd">
        <g id="官网" transform="translate(-1382.000000, -2802.000000)" fill="#48484B">
            <g id="编组-7" transform="translate(411.000000, 2802.000000)">
                <g id="编组-3" transform="translate(38.000000, 0.000000)">
                    <g id="夜间关怀" transform="translate(933.000000, 0.000000)">
                        <g transform="translate(11.000000, 12.000000)" id="形状">
                            <path d="M49.7704918,8.83165195 C58.167087,14.1828499 63.5617907,23.53657 63.5617907,33.8909206 C63.5617907,50.2490542 50.2490542,63.5617907 33.8909206,63.5617907 C23.53657,63.5617907 14.1393443,58.167087 8.83165195,49.7269861 L9.2667087,49.7269861 C31.6286255,49.7269861 49.8139975,31.5416141 49.8139975,9.17969735 C49.7704918,9.04918033 49.7704918,8.9186633 49.7704918,8.83165195 M43.1141236,0 C43.8972257,2.9148802 44.3322825,6.0037831 44.3322825,9.17969735 C44.3322825,28.5832282 28.6267339,44.2887768 9.22320303,44.2887768 C6.04728878,44.2887768 2.95838588,43.8537201 0,43.0706179 C4.04602774,57.9930643 17.6633039,69 33.8909206,69 C53.2944515,69 69,53.2944515 69,33.8909206 C69,17.6633039 58.03657,4.04602774 43.1141236,0 Z"></path>
                        </g>
                    </g>
                </g>
            </g>
        </g>
    </g>
</svg>