<?xml version="1.0" encoding="UTF-8"?>
<svg width="40px" height="48px" viewBox="0 0 40 48" version="1.1" xmlns="http://www.w3.org/2000/svg" xmlns:xlink="http://www.w3.org/1999/xlink">
    <title>形状 2</title>
    <g id="官网✅" stroke="none" stroke-width="1" fill="none" fill-rule="evenodd">
        <g id="官网" transform="translate(-885.000000, -3209.000000)" fill="#191710" fill-rule="nonzero">
            <g id="编组-8" transform="translate(885.000000, 3209.000000)">
                <g id="形状-3" transform="translate(0.000000, -0.000000)">
                    <g id="形状-2" transform="translate(0.000000, -0.000000)">
                        <path d="M20.4633302,10.8205573 L20.4633302,10.8205573 C21.0114604,10.8080993 21.5563457,10.7322832 22.0872226,10.5946057 L22.3370518,10.5946057 L22.3370514,10.5946059 C22.9123132,10.4046005 23.4652133,10.1520468 23.9859245,9.84143554 L24.2107711,9.84143554 L24.210772,9.84143508 C24.7124405,9.56613269 25.188966,9.24688869 25.6347952,8.88741806 L25.8096757,8.73678399 L25.8096754,8.7367842 C26.2592663,8.35311377 26.6770298,7.9332997 27.0588241,7.48149717 L27.2087216,7.3308631 L27.208722,7.33086255 C27.5900073,6.85731981 27.9325565,6.35356342 28.2330208,5.82452185 L28.2330208,5.64878194 L28.2330205,5.6487825 C28.5311893,5.1024121 28.781948,4.53123634 28.9825079,3.94159512 L28.9825079,3.81606083 L28.9825077,3.81606119 C29.1835659,3.21205848 29.3258027,2.58986517 29.4072175,1.95824348 L29.4072178,1.95824105 C29.4800319,1.30754368 29.4800319,0.650697371 29.4072178,-2.48689958e-14 L29.4072169,-2.48689958e-14 C23.9600786,0.598538643 19.8773093,5.29060211 20.0136395,10.7954387 L20.4633302,10.8205573 Z M33.9541397,28.4949804 L33.9541399,28.494981 C33.4626139,27.2152612 33.2331841,25.8490092 33.2795994,24.4780662 L33.279599,24.4780787 C33.3135869,23.5649056 33.4733298,22.660872 33.7542703,21.7917708 L33.7542704,21.7917705 C34.0438413,20.9016465 34.4558869,20.0566054 34.9784337,19.2812011 L34.9784338,19.281201 C35.8486066,17.9956584 36.9707655,16.9021583 38.2761846,16.0676682 L38.2761847,16.0676684 C36.5946313,13.6541125 34.0214427,12.0176239 31.1310602,11.5235335 L31.1310602,11.5235335 C30.5951353,11.4183154 30.0524889,11.3512002 29.5071679,11.3226877 L26.4842331,11.3226877 L25.7597265,11.5235335 L25.2101036,11.6992734 L24.5105824,11.9503303 L24.0109257,12.3520218 L23.1864869,12.6783962 L22.5119464,12.954559 L22.0372704,13.1302989 L21.4626622,13.3060388 L21.1378838,13.3060388 L21.1378838,13.3060388 C20.8805705,13.3357024 20.6207281,13.3357024 20.3634111,13.3060388 L20.3634112,13.3060388 C20.1142634,13.3322619 19.8630731,13.3322619 19.6139239,13.3060388 L19.3391115,13.3060388 L18.7894887,13.1554048 L18.3897615,13.0047707 L17.8151533,12.8541366 L16.8658014,12.477551 L16.491061,12.3520083 L15.8165205,12.1009514 L15.3668276,11.9503173 L14.7422533,11.7494716 L14.2675773,11.7494716 L13.6180222,11.6239429 L13.1183656,11.6239429 L12.5187766,11.448203 L12.5187771,11.4482029 C10.984058,11.4566605 9.46547509,11.7635741 8.04682909,12.3520083 L8.04682871,12.3520085 C2.86952337,14.6541755 -0.331340735,19.9550304 0.0273084606,25.6329223 L0.0273084606,28.1434917 C0.0273084606,28.3443374 0.0273084606,29.047297 0.202188998,29.499202 C0.377069535,29.9511047 0.202188998,30.001314 0.352086468,30.2523724 C0.501983939,30.5034293 0.501983939,31.0557544 0.601915741,31.4574477 C0.701847542,31.8591392 0.751813211,31.9846679 0.82676241,32.2357263 C0.901711146,32.4867832 1.02662601,32.9888966 1.15154088,33.3654818 C1.27645575,33.7420674 1.35140448,33.9178055 1.45133629,34.193972 L1.82608043,35.2484123 L2.1758415,36.0517943 C2.32573897,36.3781688 2.45065384,36.7296495 2.60055131,37.056023 L2.97529545,37.8091934 L3.47495214,38.7883139 L3.89966195,39.5163808 L4.42430402,40.4201861 L4.8739969,41.0980413 L5.42361972,41.9265315 L5.89829567,42.554175 L6.47290387,43.2822418 L6.97256056,43.8596737 L7.54716877,44.4873172 L8.07181085,44.9894292 L8.64641905,45.5166494 L9.17106113,45.9183409 L9.74566933,46.3451377 L10.2703114,46.6464063 L10.8199342,46.9476749 L11.3195909,47.1234148 L11.8692137,47.2991547 L12.5187688,47.5 L13.093377,47.5 L13.0933767,47.5 C13.7723626,47.474422 14.4447337,47.3561791 15.0920081,47.1485211 L15.0920089,47.1485207 C16.9230853,46.2256071 18.919093,45.6793438 20.9630179,45.5417567 L20.9630181,45.5417567 C21.3789214,45.5133753 21.7962598,45.5133753 22.2121668,45.5417567 L22.611894,45.5417567 L23.2864345,45.6923908 L23.7111443,45.8179195 L24.2357863,45.9936594 L24.6854792,46.1693993 L25.3350343,46.4455621 L25.9096425,46.696619 L26.2843867,46.8221477 L26.7840433,46.9978876 L28.907597,46.9978876 L28.9075968,46.9978876 C30.5761198,46.8536326 32.1412107,46.1249993 33.3295786,44.9392186 L33.3295788,44.9392184 C35.6328511,42.7294811 37.5053411,40.1070384 38.8507924,37.2066496 L38.8507923,37.2066498 C39.2740146,36.4232379 39.6575745,35.618831 40,34.7965177 L40,34.796518 C37.2399355,33.5746309 35.0684693,31.3113606 33.9541397,28.4949747 L33.9541397,28.4949804 Z" id="形状"></path>
                    </g>
                </g>
            </g>
        </g>
    </g>
</svg>