<?xml version="1.0" encoding="UTF-8"?>
<svg width="96px" height="96px" viewBox="0 0 96 96" version="1.1" xmlns="http://www.w3.org/2000/svg" xmlns:xlink="http://www.w3.org/1999/xlink">
    <title>漂流日记</title>
    <g id="官网✅" stroke="none" stroke-width="1" fill="none" fill-rule="evenodd">
        <g id="官网" transform="translate(-919.000000, -2463.000000)" fill="#F94B48" stroke="#F94B48" stroke-width="2">
            <g id="编组-7" transform="translate(406.000000, 2463.000000)">
                <g id="编组-3" transform="translate(43.000000, 0.000000)">
                    <g id="漂流日记-2" transform="translate(470.000000, 0.000000)">
                        <g id="漂流日记" transform="translate(1.000000, 9.000000)">
                            <path d="M37.8223313,4.6527524 C38.0584095,5.2334005 37.8886372,6.32775483 37.4529126,6.7606942 C36.536288,7.67095834 35.4076302,8.76749555 34.2352542,8.95013048 C29.8678075,9.63191904 27.1601946,12.5038715 24.6412985,15.6559612 C20.5704068,20.748638 18.5039939,26.6067808 18.3058048,33.1190621 C18.293418,33.5287174 18.3531662,33.9391003 18.3954271,34.6114296 C18.7007258,34.2723544 18.9142162,34.1384707 18.974693,33.9536528 C22.2615719,23.9065488 29.4502988,17.7988292 39.1899819,14.6096304 C44.13378,12.9906555 48.4531367,10.8179546 51.6292628,6.58315268 C52.2690056,5.72964362 53.4209798,5.10315487 54.4643871,4.74443368 C55.9886945,4.22272354 56.8579577,5.09296807 56.4848959,6.6784721 C55.967564,8.87736756 54.3827798,10.1172477 52.3440551,10.9009044 C47.3157352,12.8334875 42.2495262,14.6772999 37.2889694,16.7699615 C29.1384425,20.2072819 23.1038756,25.7707348 20.38169,34.4287947 C20.0567181,35.4620282 19.8672727,36.547651 19.7098872,37.6230869 C19.1655958,41.3303577 20.2315909,42.4174357 24.0307012,41.804772 C29.0896238,40.988372 32.9506682,38.1069603 36.0947343,34.2468874 C37.9287122,31.9956026 39.5608578,29.573325 41.2061188,27.1757868 C43.9530781,23.1716433 47.3893275,20.2320213 52.370286,19.4185318 C53.2359061,19.2773718 54.0425066,18.7338328 54.8593081,18.3401854 C56.7887373,17.4102752 58.7502265,17.4037266 60.6497817,18.3038039 C61.1576413,18.5446492 61.733264,19.2861033 61.7259777,19.7903504 C61.7194199,20.2989632 61.0862349,21.1619314 60.625008,21.2361496 C58.9884906,21.4995514 57.1975023,21.9121171 55.6673658,21.5068277 C51.5396405,20.4124733 48.1828125,21.5934155 45.3914064,24.4762824 C43.6339354,26.2917173 42.1285725,28.3829236 40.7026311,30.479951 C37.1702017,35.6737683 33.2552382,40.3880779 27.0304973,42.5025684 C26.0767122,42.827091 25.1010681,43.0897651 24.1356248,43.3808168 C24.1319816,43.643491 24.1283384,43.9076204 24.1246953,44.1702945 L24.5292774,44.2060427 L24.5292774,44.2060427 L25.3396965,44.2929 C25.7446362,44.3325558 26.1484829,44.357659 26.54814,44.32819 C33.6217423,43.8028418 39.8056796,41.0298469 45.3192714,36.6989978 C48.6352958,34.0948129 52.1014192,31.7918665 56.13005,30.4421143 C60.8822167,28.8500616 65.5396607,28.9584783 70.1198692,31.1457317 C71.2018943,31.6630761 72.3954007,31.9686804 73.561219,32.2851991 C75.7806456,32.8869484 77.3457566,34.1959534 78.0175594,36.4035804 C78.5093889,38.0189172 77.5716339,39.0033995 75.9904928,38.4242067 C74.8997241,38.023283 73.6318968,37.3807864 73.0395153,36.4625183 C68.8833732,30.0179065 61.4155785,29.5274844 55.2156113,32.3317673 C52.2092574,33.6917063 49.3515454,35.5209661 46.7087811,37.5117597 C40.341956,42.3061085 33.4344828,45.4836652 25.3495331,45.8358378 C24.612153,45.8678534 23.9090189,46.6718837 22.8109638,47.3507618 C26.8971568,49.3968551 30.5468967,49.4419681 34.1405315,48.2384694 C37.3509035,47.1623058 40.3929606,45.5942649 43.5720013,44.4133227 C47.6982693,42.8816632 51.9112451,42.3002874 56.2145718,43.8472271 C56.939565,44.1069908 57.7658387,44.0873448 58.5454797,44.198672 C60.5827471,44.4897237 62.2739123,45.4203615 63.2692296,47.2248819 C63.621161,47.864468 63.7676169,49.0636009 63.4003842,49.5263731 C63.0346087,49.9869624 61.8345445,50.1012002 61.1306817,49.9047403 C60.1783539,49.638428 59.1844938,49.0905232 58.4966611,48.3839952 C54.4272267,44.2088589 49.6663163,43.6980631 44.4215913,45.5535176 C42.9359017,46.0795935 41.4334534,46.6093076 40.0403006,47.332571 C35.2305716,49.8268839 30.2663716,51.2697727 24.7127048,50.0306201 C27.9667951,53.5821783 31.5684449,56.6957036 36.6033226,56.7131667 C39.8814578,56.7255364 43.3184358,56.2729511 46.4071256,55.2178887 C52.1123488,53.2685701 57.8569183,53.192169 63.6503064,53.9510863 C65.138182,54.1460909 66.534978,55.5220377 67.8108204,56.5552712 C68.2137563,56.8827043 68.3813427,58.021444 68.1204909,58.4951307 C67.8683827,58.9535371 66.9102258,59.2678729 66.2923421,59.2234875 C65.4223502,59.1609114 64.4816806,58.8640387 63.7428433,58.3976283 C58.3793506,55.005421 52.7899806,54.6736221 46.8049611,56.5821935 C44.0084545,57.4735393 41.0159447,57.8781011 38.0788113,58.1757014 C34.7853747,58.5089556 31.7535186,57.3491147 28.7384211,55.8742103 C28.9067361,56.1208766 29.0262324,56.4293913 29.2506525,56.6054776 C35.1569793,61.259394 41.8036007,63.7173255 49.3777763,62.8958321 C50.4520105,62.7794674 51.496457,62.4179562 52.5395546,62.0214566 L53.4339712,61.6779328 C54.0309131,61.4497401 54.6300678,61.2297291 55.2367417,61.0571131 C56.6663264,60.6496407 58.1410865,60.2763669 59.6114748,60.1999659 C60.2089566,60.1686778 61.2239472,60.87084 61.3638454,61.4151067 C61.5037436,61.957918 60.9521658,63.0326264 60.4093317,63.3229504 C59.2158252,63.9610812 57.847446,64.5744727 56.5300714,64.6203133 C53.1484697,64.7396445 49.7508381,64.626862 46.3670506,64.4587796 C35.4127307,63.9137853 27.1463505,58.7694469 21.2749982,49.6267859 C19.9539804,47.5697781 18.7877245,47.188721 17.6055852,49.3422829 C10.5337064,62.2254762 5.77784695,62.3261913 2.9398427,77.061108 C1.60557825,83.9886085 0.0400509537,82.821508 2.39043369e-06,78.5034798 L-5.37738257e-14,78.1607194 C0.00314667045,77.8117549 0.0158328757,77.4444381 0.0388897849,77.061108 C0.489187092,69.5747406 0.489187092,69.5747406 13.6265017,51.2333912 C13.908484,50.8390162 14.1722504,50.4228123 14.5081518,50.0771884 C17.6063138,46.8879896 18.0464102,43.2272871 17.361492,38.896438 C15.5814332,27.6436524 19.1349931,18.1197137 27.6236073,10.4432256 C28.0828912,10.0282344 28.505986,9.57095989 28.9194737,9.103256 L29.7415155,8.16338065 C30.2915051,7.54011084 30.8559195,6.93605284 31.4977672,6.4267124 C32.8173277,5.37819871 34.4195992,4.63310641 35.9941825,3.98915456 C36.4692535,3.79487756 37.6496445,4.22854457 37.8223313,4.6527524 Z M84.5698224,43.37063 C86.0861147,43.3306104 87.3619571,44.5799497 87.3634173,46.1094263 C87.3656003,47.6629147 86.1240038,48.8795107 84.5683651,48.8489503 C83.1205645,48.8205727 81.8906262,47.625078 81.8396217,46.1974695 C81.7871599,44.7029191 83.0345854,43.4113772 84.5698224,43.37063 Z M92.9992714,26.4751526 C92.9992714,26.733461 93,26.992497 93,27.2500777 C92.3413127,27.704846 91.7299867,28.4251989 91.0122798,28.5539893 C89.8399039,28.7635465 89.0690065,27.8627415 89.3167429,26.7960371 C89.4690279,26.1411708 90.3878384,25.2898447 91.0297671,25.2279962 C91.6403644,25.1690582 92.3391268,26.0225673 92.9992714,26.4751526 Z M78.1237945,13.8692677 C78.1660555,15.4678691 77.0352117,16.6597257 75.4620857,16.6750059 C73.9013465,16.6902861 72.6808805,15.4940637 72.6823365,13.9507622 C72.683795,12.4438421 73.7745638,11.3145616 75.2850271,11.2563512 C76.9383031,11.1930475 78.080805,12.245927 78.1237945,13.8692677 Z M88.4913436,1.16056879 L88.5314186,2.0104397 L88.5314186,2.0104397 C87.8370281,2.46811847 87.1134921,3.31653412 86.4577193,3.26778297 C85.8609661,3.22266996 84.9049951,2.1996233 84.9071773,1.61097127 C84.9093669,1.03832708 85.8718956,0.102595928 86.514553,0.00654887261 C87.1032912,-0.0814942612 87.8275558,0.739999111 88.4913436,1.16056879 Z" id="形状结合"></path>
                        </g>
                    </g>
                </g>
            </g>
        </g>
    </g>
</svg>