<?xml version="1.0" encoding="UTF-8"?>
<svg width="40px" height="48px" viewBox="0 0 40 48" version="1.1" xmlns="http://www.w3.org/2000/svg" xmlns:xlink="http://www.w3.org/1999/xlink">
    <title>anzhuo</title>
    <g id="官网✅" stroke="none" stroke-width="1" fill="none" fill-rule="evenodd">
        <g id="官网" transform="translate(-995.000000, -3209.000000)" fill="#85BA41" fill-rule="nonzero">
            <g id="编组-8" transform="translate(885.000000, 3209.000000)">
                <g id="anzhuo-2" transform="translate(110.000000, 0.000000)">
                    <g id="anzhuo" transform="translate(0.000000, 0.000000)">
                        <path d="M7.29069857,15.0452203 L32.7374788,15.0452203 L32.7374788,15.6352241 C32.7374788,22.0395279 32.7386257,28.4438316 32.7369283,34.8481354 C32.7362402,37.0134311 31.5944002,38.1579466 29.4441205,38.1588745 C28.9092342,38.1590137 28.3745314,38.1588745 27.8762981,38.1588745 C27.8762981,40.4530089 27.9009322,42.6825615 27.867261,44.9110935 C27.8463885,46.2931044 26.6652807,47.4403572 25.3116421,47.4904636 C23.8574945,47.5444673 22.5300498,46.5252644 22.4784879,45.1133752 C22.3952732,42.8305612 22.4561475,40.542551 22.4561475,38.2078675 L17.5778559,38.2078675 C17.5778559,39.1146556 17.5795073,40.0223715 17.5774889,40.9299947 C17.5744612,42.2670953 17.602857,43.6054022 17.5548273,44.9407399 C17.5078528,46.2479622 16.4916605,47.3167148 15.2383476,47.4768235 C13.9086092,47.6468144 12.6646545,46.8678443 12.2697745,45.5951861 C12.1825229,45.3139867 12.1312362,45.0094043 12.1294012,44.7151679 C12.1170153,42.8151117 12.1201347,40.9148236 12.1259148,39.0147674 C12.1266947,38.7541673 12.1699535,38.4935208 12.2002301,38.1587817 C11.567633,38.1587817 10.9471006,38.1625861 10.3265224,38.1580394 C8.48965128,38.1445849 7.29427672,36.9404056 7.29276289,35.076723 C7.28771679,28.5669637 7.29074445,22.0571115 7.29069857,15.5472594 L7.29069857,15.0452203 L7.29069857,15.0452203 Z M32.7486261,13.1457209 L7.26569746,13.1457209 C7.50245116,8.6906983 10.0051778,5.92106275 13.7253441,3.9544299 C13.3462446,3.37342674 12.9782006,2.80791946 12.608597,2.24338648 C12.3399611,1.83297732 12.0675177,1.42511987 11.8000746,1.01392199 C11.611534,0.724046736 11.3093187,0.39710197 11.7283741,0.107737062 C12.1808714,-0.204686105 12.3656962,0.232353727 12.5653381,0.530626453 C13.0428824,1.24380865 13.5140503,1.96149115 13.986732,2.67806018 C14.5688681,3.56086208 14.5683176,3.56058371 15.5689128,3.26560502 C18.7513946,2.32750041 21.9127745,2.38062256 25.0522727,3.47215506 C25.164709,3.51135874 25.2798058,3.54286086 25.4270601,3.58814227 C26.0778232,2.6025293 26.7229438,1.62522101 27.368202,0.648098306 C27.4454073,0.531044007 27.5209153,0.413015416 27.6006895,0.297724122 C27.782349,0.0348506947 28.013185,-0.106792894 28.3036108,0.109917621 C28.5664666,0.305936017 28.5217857,0.556236431 28.3558609,0.806954398 C27.795056,1.65421782 27.2380127,2.50398656 26.680052,3.35296659 C26.5554592,3.54258249 26.4329308,3.73354385 26.2904015,3.95340922 C29.9901541,5.90227282 32.5152671,8.67738297 32.7486261,13.1457209 L32.7486261,13.1457209 Z M26.824508,8.1345164 C26.832123,7.38922894 26.2152147,6.75510363 25.4742182,6.74679895 C24.7262949,6.73830868 24.1169557,7.34738075 24.1108545,8.10927758 C24.1049827,8.88022141 24.6889537,9.4800609 25.4501346,9.48488597 C26.2082877,9.48961825 26.8167094,8.89177374 26.824508,8.1345164 L26.824508,8.1345164 Z M15.9009002,8.10152964 C15.891175,7.34056071 15.2768814,6.73227735 14.5322151,6.74647418 C13.7928242,6.76048544 13.1761911,7.40110603 13.1892193,8.14203237 C13.2024309,8.8976195 13.8158528,9.49384018 14.5715288,9.48567468 C15.3312875,9.47741639 15.9108547,8.87409729 15.900946,8.10152964 L15.9009002,8.10152964 Z M39.9982623,23.6749012 C39.9981705,25.5905461 40.0031249,27.5063302 39.9967026,29.4220678 C39.9909225,31.1083364 38.8446786,32.3259238 37.2790581,32.3249037 C35.7146303,32.3239288 34.5586612,31.0981295 34.5571015,29.4223462 C34.5535233,25.5380735 34.5492571,21.6538008 34.5602209,17.7696209 C34.5642119,16.3395449 35.6001757,15.1917818 36.9671175,15.0479113 C38.3897958,14.8982877 39.6364571,15.7908326 39.9378467,17.1947882 C39.9960145,17.4658736 39.9952346,17.7531043 39.9959227,18.0330974 C40.0006018,19.9136214 39.998354,21.7942381 39.9982164,23.6749012 L39.9982623,23.6749012 Z M5.44786386,23.674994 C5.44786386,25.6787892 5.46667204,27.6826307 5.44089112,29.6859155 C5.4251106,30.9142202 4.57002649,31.9488725 3.40630472,32.2493258 C2.26845566,32.5428663 1.02055582,32.0656021 0.438190322,31.0194902 C0.200794384,30.5931212 0.0288142153,30.0643122 0.0248232112,29.5804136 C-0.00779292642,25.6434363 -0.00389366946,21.706227 0.0116116111,17.7691569 C0.0178045486,16.2174336 1.22863852,15.0270336 2.73476092,15.0270336 C4.24721388,15.0270336 5.42969796,16.1994787 5.44690056,17.7694353 C5.46850703,19.7377384 5.45213016,21.7065518 5.45213016,23.6750404 L5.44786391,23.674994 L5.44786386,23.674994 Z" id="形状"></path>
                    </g>
                </g>
            </g>
        </g>
    </g>
</svg>