<?xml version="1.0" encoding="UTF-8"?>
<svg width="283px" height="228px" viewBox="0 0 283 228" version="1.1" xmlns="http://www.w3.org/2000/svg" xmlns:xlink="http://www.w3.org/1999/xlink">
    <title>蒲公英</title>
    <defs>
        <rect id="path-1" x="0" y="0" width="282" height="228"></rect>
    </defs>
    <g id="时光日记✅" stroke="none" stroke-width="1" fill="none" fill-rule="evenodd">
        <g id="我和她" transform="translate(-252.000000, -1106.000000)">
            <g id="蒲公英-2" transform="translate(252.000000, 1106.000000)">
                <g id="蒲公英" transform="translate(0.402985, 0.000000)">
                    <mask id="mask-2" fill="white">
                        <use xlink:href="#path-1"></use>
                    </mask>
                    <g id="蒙版"></g>
                    <g id="编组" mask="url(#mask-2)" fill="#484848">
                        <g transform="translate(14.597015, 10.000000)">
                            <path d="M57.5476984,82.3231499 C58.9868881,82.4256191 60.440353,82.7096794 61.8639699,82.604616 C74.4623956,81.6681251 85.4762851,76.7249575 95.296257,69.0047441 C101.202256,64.3624989 107.375588,60.2572443 114.550773,57.851163 C123.01461,55.0131544 131.309742,55.2064192 139.467314,59.1054382 C141.394452,60.0276613 143.520145,60.5724344 145.596523,61.1366637 C149.549428,62.2093479 152.336966,64.5427928 153.533479,68.4781301 C154.409451,71.3576452 152.739264,73.1125929 149.923176,72.0801181 C147.980465,71.3654276 145.722403,70.220107 144.667344,68.5831935 C137.265055,57.094966 123.964554,56.2207348 112.922114,61.2196768 C107.567653,63.6439172 102.477931,66.9047734 97.7710405,70.4535812 C86.4314191,79.0000338 74.1288773,84.6643772 59.7291934,85.2921634 C58.4158841,85.3492349 57.1635684,86.782507 55.2078795,87.9926816 C62.4855857,91.6400674 68.9859477,91.7204863 75.386384,89.5751178 C81.1042109,87.6567382 86.5222607,84.8615332 92.184285,82.7563742 C99.5333666,80.0260232 107.036879,78.9896572 114.701311,81.7472469 C115.992558,82.210304 117.464192,82.1752829 118.85277,82.373736 C122.481241,82.8925675 125.493287,84.5515314 127.265995,87.768287 C127.892802,88.9084193 128.153647,91.0460052 127.499588,91.8709474 C126.848124,92.6919983 124.710752,92.8956397 123.457139,92.5454284 C121.760997,92.0706976 119.990884,91.0939972 118.765821,89.8345336 C111.517963,82.3918951 103.038553,81.4813457 93.6974457,84.7888968 C91.051361,85.7266848 88.3754284,86.6709582 85.8941562,87.9602546 C77.3277978,92.406641 68.4863191,94.9787484 58.5949717,92.7698231 C64.3906628,99.100865 70.8053742,104.651065 79.7727333,104.682195 C85.6112497,104.704246 91.7326727,103.897463 97.2337776,102.016698 C107.395054,98.541824 117.626409,98.4056307 127.944711,99.758484 C130.594689,100.106101 133.08245,102.558877 135.354787,104.400729 C136.072435,104.984415 136.370914,107.014343 135.906325,107.858741 C135.457308,108.675901 133.750784,109.236239 132.650304,109.157117 C131.100806,109.045569 129.425429,108.51636 128.109524,107.684933 C118.556886,101.637951 108.601949,101.046483 97.9423417,104.448721 C92.9616291,106.037643 87.6318254,106.758819 82.4006496,107.289324 C76.5348808,107.883386 71.1349993,105.815842 65.7649657,103.186663 C66.0647429,103.626373 66.2775716,104.176335 66.6772745,104.490228 C77.1967264,112.786344 89.0346785,117.167876 102.524649,115.703474 C106.077852,115.318242 109.448073,113.425804 112.959748,112.425756 C115.505907,111.699392 118.132526,111.033991 120.751358,110.897797 C121.815502,110.842023 123.623249,112.093704 123.872414,113.063919 C124.12158,114.03154 123.139193,115.947325 122.172379,116.46486 C120.046687,117.602398 117.609538,118.695835 115.26323,118.777551 C109.240435,118.990272 103.18909,118.789225 97.1624021,118.4896 C77.6522319,117.518088 62.9294115,108.34774 52.472251,92.0499443 C50.1194548,88.3831023 48.773702,88.2378295 45.9368501,91.5427865 C28.3927506,111.982155 18.5948402,135.844515 14.6497213,162.290656 C11.2509495,185.069955 12.1230284,207.735111 16.3873905,230.321145 C17.5761171,236.61976 15.0922495,241.010372 10.0375659,241.861256 C4.75448069,242.752349 0.351260816,239.286554 0.212403012,233.322586 C-0.0134031347,223.610059 -0.214552289,213.84565 0.474545781,204.168144 C3.31269546,164.301128 15.4517225,127.609361 38.8499112,94.9138944 C39.3521352,94.2108777 39.8219158,93.4689486 40.4201723,92.8528361 C45.9381478,87.1677394 46.7219807,80.6421357 45.5021084,72.9219223 C42.3317381,52.8625977 48.660799,35.8851324 63.7794289,22.2009504 C66.2334486,19.9816485 68.1073801,17.0839743 70.6794938,15.0410751 C73.0296945,13.1719844 75.8834171,11.8437757 78.6878256,10.6958609 C79.5339498,10.3495408 81.6362829,11.1225998 81.9438464,11.8787968 C82.364313,12.9138657 82.0619404,14.8646723 81.285894,15.6364343 C79.6533415,17.2590799 77.6431477,19.2137778 75.5550897,19.5393446 C67.7764573,20.7547075 62.9540685,25.8742777 58.4677935,31.4932234 C51.2173398,40.5714783 47.5369592,51.0142603 47.1839748,62.6231161 C47.1619133,63.3533715 47.2683277,64.084924 47.3435964,65.2834249 C47.887348,64.6789861 48.2675848,64.4403236 48.3752969,64.1108656 C54.2293862,46.2008006 67.0328543,35.3131206 84.3796978,29.628024 C93.1848398,26.7420235 100.877822,22.868946 106.534655,15.319947 C107.674068,13.7984735 109.725789,12.6816886 111.584148,12.0422287 C114.299012,11.1122232 115.847212,12.6635295 115.182771,15.4898643 C114.261378,19.4096367 111.438801,21.6198591 107.807734,23.016813 C98.852055,26.4618545 89.8288932,29.7486523 80.9939033,33.4790511 C66.4774231,39.6064517 55.7295695,49.5239167 50.8812261,64.9578581 C50.3024356,66.79971 49.9650241,68.7349517 49.684713,70.6520343 C48.7153039,77.2606511 50.6138924,79.1984869 57.3802903,78.1063465 C66.3904747,76.651024 73.2671803,71.5145917 78.8669132,64.6335883 C82.1333159,60.6204263 85.0402456,56.3024508 87.9705346,52.0285759 C92.8630011,44.890751 98.9831264,39.6505523 107.854453,38.2004182 C109.396164,37.9487849 110.832758,36.979867 112.287521,36.2781473 C115.723927,34.6204805 119.217434,34.6088068 122.600633,36.2132934 C123.505155,36.6426265 124.530367,37.9643498 124.517389,38.8632255 C124.50571,39.7698836 123.377977,41.3082191 122.556509,41.4405212 C119.641793,41.9100637 116.451957,42.6455074 113.72671,41.9230345 C106.375033,39.9722279 100.396361,42.0773869 95.4247329,47.2164134 C92.2945926,50.4526251 89.613469,54.1804298 87.0737987,57.9186111 C80.7823723,67.17716 73.8096342,75.580934 62.7230714,79.3502451 C61.0243344,79.9287423 59.2866652,80.3969878 57.5671644,80.9158193 C57.5606757,81.3840648 57.554187,81.8549044 57.5476984,82.3231499" id="Fill-1"></path>
                            <path d="M153.722689,28.3082462 C153.797958,31.1579285 151.783871,33.2825437 148.982058,33.3097823 C146.202306,33.337021 144.028598,31.2046233 144.031191,28.4535191 C144.033789,25.7672687 145.9765,23.7542023 148.666708,23.650436 C151.611272,23.5375902 153.646123,25.4144633 153.722689,28.3082462" id="Fill-3"></path>
                            <path d="M170.178901,85.7798651 C170.182789,88.5491284 167.971446,90.7178443 165.200779,90.663367 C162.622177,90.6127809 160.431597,88.4816803 160.340756,85.9368116 C160.247319,83.2726116 162.469044,80.9702966 165.203375,80.8976602 C167.903964,80.8263209 170.176301,83.0534053 170.178901,85.7798651" id="Fill-5"></path>
                            <path d="M248,7.08492302 C246.855396,7.92413304 245.657586,9.48841015 244.579167,9.40928834 C243.428074,9.3262753 241.748803,7.86057618 241.446431,6.69839352 C240.945505,4.78131096 242.400267,3.24297542 244.409163,3.51017367 C245.674456,3.67879392 246.791807,4.94603997 247.974045,5.71909898 C247.983129,6.17437366 247.992214,6.62964834 248,7.08492302" id="Fill-7"></path>
                            <path d="M226.854718,43.2761804 C225.668587,44.0868547 224.629453,45.2538033 223.510804,45.1694932 C222.373987,45.0825889 220.712884,43.5779774 220.432573,42.4170919 C219.971877,40.4974151 221.396792,38.9577825 223.449811,39.3118851 C224.741058,39.5349826 225.854516,40.790555 227.047136,41.5830701 C228.239756,42.3755853 227.938566,41.9715409 227.544447,42.4170919 C227.150329,42.8626428 228.040849,42.4655061 226.854718,43.2761804 Z" id="Fill-9"></path>
                            <path d="M179.774995,52.536628 C179.005512,53.3739314 177.955971,54.2557901 176.677701,54.485373 C174.589643,54.8589317 173.216638,53.2531481 173.657868,51.3516305 C173.929095,50.1842595 175.565541,48.6666772 176.708847,48.5564255 C177.79635,48.4513621 178.599246,49.1712464 179.774995,49.9780295 C180.950744,50.7848126 180.34561,51.3069562 180.34561,51.7661221 C180.34561,52.0722327 180.155405,52.329068 179.774995,52.536628 Z" id="Fill-11"></path>
                            <path d="M209.680697,3.40407262 C209.36654,3.79579044 206.218336,6.30434096 205.060755,6.08383755 C203.903174,5.86333415 202.375738,4.21604399 202.195353,3.0123548 C201.912446,1.10954011 203.447669,-0.38599182 205.461756,0.0887390438 C206.695903,0.380581788 209.224392,1.93808607 209.680697,2.29666038 C210.137002,2.65523469 209.994854,3.0123548 209.680697,3.40407262 Z" id="Fill-13"></path>
                            <path d="M172.259168,7.16858461 C171.022425,7.98444721 169.733773,9.49684117 168.56581,9.40993688 C167.502964,9.32951799 165.800333,7.50582511 165.8042,6.45648831 C165.80812,5.43568724 167.52243,3.76764383 168.667033,3.59642942 C169.715604,3.43948287 171.325271,4.85070468 172.187792,5.65359649 C172.762806,6.1888577 172.786598,6.69385374 172.259168,7.16858461 Z" id="Fill-15"></path>
                            <path d="M206.00837,61.8518804 C203.925503,63.4602582 203.223809,64.4656166 201.976684,64.6679609 C200.080691,64.9766657 198.396229,63.6095446 198.823185,61.6068548 C199.076243,60.4213247 200.659482,58.8778009 201.817063,58.7143689 C202.882504,58.5652049 205.922441,60.5708107 206.355247,60.9894924 C206.643785,61.2686136 206.528159,61.5560763 206.00837,61.8518804 Z" id="Fill-17"></path>
                        </g>
                    </g>
                </g>
            </g>
        </g>
    </g>
</svg>